# xmcd
#
# Track frame offsets:
#	150
#	15335
#	35520
#	54138
#	71496
#	88182
#	105642
#	130296
#	146886
#	166509
#	181124
#	199750
#	215541
#
# Disc length: 3077 seconds
#
# Revision: 0
# Processed by: cddbd v1.4PL0 Copyright (c) Steve Scherf et al.
# Submitted via: dBpowerAMP V4.0
#
DISCID=ab0c030d
DTITLE=Hermes House Band - The Album
DYEAR=1900
DGENRE=Country
TTITLE0=Country Roads
TTITLE1=I Will Survive
TTITLE2=Can´t Take My Eyes Off Of You
TTITLE3=Que Sera Sera
TTITLE4=Tonight´s The Night
TTITLE5=NaNa Hey Hey Kiss Him Goodbye
TTITLE6=You´ve Got A Friend
TTITLE7=Disco Samba Part II
TTITLE8=Holiday Express
TTITLE9=Don´t You Cry
TTITLE10=I Will Survive (Karaoke)
TTITLE11=Can´t Take My Eyes Off Of You (Karaoke)
TTITLE12=Country Roads (Karaoke)
EXTD=Ohne Track 14 den Mega Mix
EXTT0=
EXTT1=
EXTT2=
EXTT3=
EXTT4=
EXTT5=
EXTT6=
EXTT7=
EXTT8=
EXTT9=
EXTT10=
EXTT11=
EXTT12=
PLAYORDER=
